<?xml version="1.0" encoding="utf-8" ?>
<svg baseProfile="full" height="960px" version="1.1" width="1024px" xmlns="http://www.w3.org/2000/svg" xmlns:ev="http://www.w3.org/2001/xml-events" xmlns:xlink="http://www.w3.org/1999/xlink"><defs /><rect fill="rgb(212,212,212)" height="670px" stroke="black" stroke-width="1" width="770px" x="30" y="30" /><circle cx="400.0" cy="600.0" fill="rgb(25,25,112)" r="14" /><text x="413.0" y="615.0">0</text><circle cx="616.5063509461097" cy="475.0" fill="rgb(25,25,112)" r="14" /><text x="632.5063509461097" y="490.0">1</text><circle cx="616.5063509461097" cy="225.00000000000006" fill="rgb(25,25,112)" r="14" /><text x="632.5063509461097" y="227.87564434701792">2</text><circle cx="400.00000000000006" cy="100.0" fill="rgb(25,25,112)" r="14" /><text x="413.00000000000006" y="94.0">3</text><circle cx="183.49364905389038" cy="224.9999999999999" fill="rgb(25,25,112)" r="14" /><text x="192.785445121391" y="213.37041754373558">4</text><circle cx="183.49364905389035" cy="475.0" fill="rgb(25,25,112)" r="14" /><text x="188.99364905389035" y="459.6891108675446">5</text><line style="stroke:rgb(137, 229, 155); stroke-width:1.25" x1="400.0" x2="616.5063509461097" y1="600.0" y2="475.0" /><line style="stroke:rgb(137, 229, 155); stroke-width:1.25" x1="400.0" x2="183.49364905389035" y1="600.0" y2="475.0" /><line style="stroke:rgb(131, 93, 138); stroke-width:1.25" x1="616.5063509461097" x2="400.0" y1="475.0" y2="600.0" /><line style="stroke:rgb(131, 93, 138); stroke-width:1.25" x1="616.5063509461097" x2="183.49364905389035" y1="475.0" y2="475.0" /><line style="stroke:rgb(132, 114, 219); stroke-width:1.25" x1="616.5063509461097" x2="183.49364905389038" y1="225.00000000000006" y2="224.9999999999999" /><line style="stroke:rgb(86, 223, 153); stroke-width:1.25" x1="183.49364905389038" x2="616.5063509461097" y1="224.9999999999999" y2="225.00000000000006" /><line style="stroke:rgb(135, 133, 209); stroke-width:1.25" x1="183.49364905389035" x2="400.0" y1="475.0" y2="600.0" /><line style="stroke:rgb(135, 133, 209); stroke-width:1.25" x1="183.49364905389035" x2="616.5063509461097" y1="475.0" y2="475.0" /></svg>