<?xml version="1.0" encoding="utf-8" ?>
<svg baseProfile="full" height="960px" version="1.1" width="1024px" xmlns="http://www.w3.org/2000/svg" xmlns:ev="http://www.w3.org/2001/xml-events" xmlns:xlink="http://www.w3.org/1999/xlink"><defs /><rect fill="rgb(212,212,212)" height="670px" stroke="black" stroke-width="1" width="770px" x="30" y="30" /><line style="stroke:rgb(160,160,160);stroke-width:1.5" x1="200" x2="680" y1="300" y2="300" /><line style="stroke:rgb(160,160,160);stroke-width:1.5" x1="200" x2="680" y1="340" y2="340" /><line style="stroke:rgb(160,160,160);stroke-width:1.5" x1="200" x2="200" y1="300" y2="340" /><line style="stroke:rgb(160,160,160);stroke-width:1.5" x1="280" x2="280" y1="300" y2="340" /><line style="stroke:rgb(160,160,160);stroke-width:1.5" x1="360" x2="360" y1="300" y2="340" /><line style="stroke:rgb(160,160,160);stroke-width:1.5" x1="440" x2="440" y1="300" y2="340" /><line style="stroke:rgb(160,160,160);stroke-width:1.5" x1="520" x2="520" y1="300" y2="340" /><line style="stroke:rgb(160,160,160);stroke-width:1.5" x1="600" x2="600" y1="300" y2="340" /><line style="stroke:rgb(160,160,160);stroke-width:1.5" x1="680" x2="680" y1="300" y2="340" /><circle cx="240" cy="320" fill="rgb(25,25,112)" r="18" /><text style="font-size:13;font-family:Comic Sans MS, Arial" x="204" y="328">0</text><circle cx="320" cy="320" fill="rgb(25,25,112)" r="18" /><text style="font-size:13;font-family:Comic Sans MS, Arial" x="284" y="328">1</text><circle cx="400" cy="320" fill="rgb(25,25,112)" r="18" /><text style="font-size:13;font-family:Comic Sans MS, Arial" x="364" y="328">2</text><circle cx="480" cy="320" fill="rgb(25,25,112)" r="18" /><text style="font-size:13;font-family:Comic Sans MS, Arial" x="444" y="328">3</text><circle cx="560" cy="320" fill="rgb(25,25,112)" r="18" /><text style="font-size:13;font-family:Comic Sans MS, Arial" x="524" y="328">4</text><circle cx="640" cy="320" fill="rgb(25,25,112)" r="18" /><text style="font-size:13;font-family:Comic Sans MS, Arial" x="604" y="328">5</text><path d="M 240 300 q 40.0 -65 80 0" style="stroke:rgb(37, 77, 129); stroke-width:1.25; fill:none" /><path d="M 240 300 q 200.0 -65 400 0" style="stroke:rgb(37, 77, 129); stroke-width:1.25; fill:none" /><path d="M 320 300 q -40.0 -65 -80 0" style="stroke:rgb(149, 179, 37); stroke-width:1.25; fill:none" /><path d="M 320 300 q 160.0 -65 320 0" style="stroke:rgb(149, 179, 37); stroke-width:1.25; fill:none" /><path d="M 400 300 q 80.0 -65 160 0" style="stroke:rgb(170, 26, 37); stroke-width:1.25; fill:none" /><path d="M 560 300 q -80.0 -65 -160 0" style="stroke:rgb(25, 164, 187); stroke-width:1.25; fill:none" /><path d="M 640 300 q -200.0 -65 -400 0" style="stroke:rgb(178, 27, 15); stroke-width:1.25; fill:none" /><path d="M 640 300 q -160.0 -65 -320 0" style="stroke:rgb(178, 27, 15); stroke-width:1.25; fill:none" /></svg>